<svg width="7" height="10" viewBox="0 0 7 10" fill="none" xmlns="http://www.w3.org/2000/svg">
<path d="M0.497875 10V8.661L3.60487 5.463C4.29821 4.735 4.64488 4.12833 4.64488 3.643C4.64488 3.28767 4.53221 3.00167 4.30688 2.785C4.09021 2.56833 3.80854 2.46 3.46188 2.46C2.77721 2.46 2.27021 2.81533 1.94088 3.526L0.432875 2.642C0.718875 2.018 1.13054 1.54133 1.66787 1.212C2.20521 0.882666 2.79454 0.717999 3.43588 0.717999C4.25921 0.717999 4.96554 0.977999 5.55488 1.498C6.14421 2.00933 6.43888 2.70267 6.43888 3.578C6.43888 4.52267 5.94054 5.49333 4.94388 6.49L3.16288 8.271H6.58188V10H0.497875Z" fill="white"/>
</svg>
