<svg width="7" height="11" viewBox="0 0 7 11" fill="none" xmlns="http://www.w3.org/2000/svg">
<path d="M4.64701 4.592C5.26234 4.774 5.76067 5.09467 6.14201 5.554C6.53201 6.00467 6.72701 6.55067 6.72701 7.192C6.72701 8.128 6.41067 8.86033 5.77801 9.389C5.15401 9.91767 4.38701 10.182 3.47701 10.182C2.76634 10.182 2.12934 10.0217 1.56601 9.701C1.01134 9.37167 0.608341 8.89067 0.357008 8.258L1.89101 7.374C2.11634 8.076 2.64501 8.427 3.47701 8.427C3.93634 8.427 4.29167 8.31867 4.54301 8.102C4.80301 7.87667 4.93301 7.57333 4.93301 7.192C4.93301 6.81933 4.80301 6.52033 4.54301 6.295C4.29167 6.06967 3.93634 5.957 3.47701 5.957H3.08701L2.39801 4.917L4.19201 2.577H0.630008V0.899999H6.35001V2.382L4.64701 4.592Z" fill="white"/>
</svg>
