<svg width="20" height="21" viewBox="0 0 20 21" fill="none" xmlns="http://www.w3.org/2000/svg">
<path d="M17.3671 4.34123C16.9415 3.91541 16.4361 3.57761 15.8799 3.34714C15.3237 3.11667 14.7275 2.99805 14.1254 2.99805C13.5234 2.99805 12.9272 3.11667 12.371 3.34714C11.8147 3.57761 11.3094 3.91541 10.8838 4.34123L10.0004 5.22457L9.11709 4.34123C8.25735 3.48149 7.09129 2.99849 5.87542 2.99849C4.65956 2.99849 3.4935 3.48149 2.63376 4.34123C1.77401 5.20098 1.29102 6.36704 1.29102 7.5829C1.29102 8.79876 1.77401 9.96482 2.63376 10.8246L3.51709 11.7079L10.0004 18.1912L16.4838 11.7079L17.3671 10.8246C17.7929 10.3989 18.1307 9.89358 18.3612 9.33736C18.5917 8.78115 18.7103 8.18497 18.7103 7.5829C18.7103 6.98083 18.5917 6.38465 18.3612 5.82844C18.1307 5.27222 17.7929 4.76686 17.3671 4.34123Z" fill="#FC1482" stroke="#FC1482" stroke-width="2" stroke-linecap="round" stroke-linejoin="round"/>
</svg>
