<svg width="21" height="21" viewBox="0 0 21 21" fill="none" xmlns="http://www.w3.org/2000/svg">
<g clip-path="url(#clip0_1946_388)">
<path d="M15.0599 12.4835C14.8129 12.3595 13.5949 11.7595 13.3679 11.6775C13.1409 11.5945 12.9759 11.5535 12.8109 11.8015C12.6459 12.0485 12.1709 12.6075 12.0259 12.7725C11.8819 12.9375 11.7369 12.9575 11.4899 12.8335C10.7599 12.5429 10.0862 12.1273 9.49885 11.6055C8.95717 11.1048 8.49278 10.5265 8.12085 9.88949C7.97685 9.64149 8.10585 9.50749 8.22985 9.38449C8.34085 9.27349 8.47785 9.09549 8.60085 8.95049C8.70273 8.82531 8.78623 8.68624 8.84885 8.53749C8.8818 8.46913 8.89714 8.39362 8.89347 8.31782C8.88981 8.24202 8.86725 8.16834 8.82785 8.10349C8.76585 7.97949 8.27085 6.76049 8.06485 6.26449C7.86385 5.78249 7.65985 5.84749 7.50685 5.83949C7.36285 5.83249 7.19785 5.83049 7.03285 5.83049C6.90734 5.83399 6.7839 5.86342 6.67032 5.91695C6.55673 5.97047 6.45545 6.04692 6.37285 6.14149C6.09288 6.40662 5.87119 6.72717 5.72192 7.0827C5.57265 7.43823 5.49906 7.82095 5.50585 8.20649C5.58615 9.14072 5.93753 10.0312 6.51685 10.7685C7.57877 12.3605 9.03648 13.649 10.7469 14.5075C11.2082 14.7057 11.6795 14.8799 12.1589 15.0295C12.6642 15.1829 13.1984 15.2161 13.7189 15.1265C14.0636 15.0567 14.39 14.9161 14.6776 14.7137C14.9653 14.5113 15.2078 14.2514 15.3899 13.9505C15.5523 13.5804 15.6024 13.1708 15.5339 12.7725C15.4729 12.6685 15.3079 12.6075 15.0599 12.4835ZM17.5519 3.40449C15.8518 1.70484 13.592 0.680896 11.1932 0.523292C8.79447 0.365687 6.42015 1.08516 4.51234 2.54776C2.60452 4.01037 1.29321 6.11643 0.822545 8.47385C0.351881 10.8313 0.753934 13.2794 1.95385 15.3625L0.547852 20.4975L5.80185 19.1205C7.25501 19.9117 8.88323 20.3264 10.5379 20.3265H10.5419C12.5019 20.3255 14.4178 19.7435 16.0473 18.6542C17.6768 17.5648 18.9468 16.0169 19.697 14.2061C20.4471 12.3952 20.6437 10.4026 20.2619 8.48007C19.8801 6.55752 18.937 4.79127 17.5519 3.40448V3.40449ZM14.9189 17.3935C13.607 18.2158 12.0901 18.6521 10.5419 18.6525H10.5379C9.06275 18.6524 7.61484 18.2555 6.34585 17.5035L6.04485 17.3255L2.92685 18.1435L3.75885 15.1035L3.56385 14.7915C2.6984 13.4113 2.26163 11.8055 2.30879 10.1771C2.35594 8.54876 2.8849 6.97092 3.82877 5.64316C4.77264 4.31539 6.08904 3.29733 7.6115 2.7177C9.13396 2.13807 10.7941 2.02291 12.382 2.38678C13.9699 2.75065 15.4143 3.57721 16.5324 4.76193C17.6506 5.94666 18.3923 7.43635 18.6639 9.04262C18.9354 10.6489 18.7245 12.2996 18.0579 13.7861C17.3913 15.2725 16.2989 16.5279 14.9189 17.3935Z" fill="#FC1482"/>
</g>
<defs>
<clipPath id="clip0_1946_388">
<rect width="19.904" height="19.9956" fill="white" transform="translate(0.547852 0.501953)"/>
</clipPath>
</defs>
</svg>
