<svg id="Camada_1" data-name="Camada 1" xmlns="http://www.w3.org/2000/svg" viewBox="0 0 283.46 283.46"><defs><style>.cls-1{fill:#1f295c;}.cls-2{fill:#fb1481;}.cls-3{fill:#fff;}</style></defs><title>avatar bem.care</title><rect class="cls-1" width="283.46" height="283.46"/><path class="cls-2" d="M222.17,140.9a7,7,0,1,1-7-7,7,7,0,0,1,7,7"/><path class="cls-3" d="M122.71,117.57a14,14,0,0,1,26.38,0Zm10.52-18.5a23.32,23.32,0,0,0,2.67,46.48h0a23.11,23.11,0,0,0,15.43-5.84,1.38,1.38,0,0,0,0-2l-4.61-4.61a1.39,1.39,0,0,0-1.87-.12,13.89,13.89,0,0,1-9,3.26h0a14,14,0,0,1-13.19-9.33h34.84a1.39,1.39,0,0,0,1.38-1.15,22.67,22.67,0,0,0,.29-3.51,23.35,23.35,0,0,0-26-23.17"/><path class="cls-3" d="M84.61,136.23a14,14,0,0,1-14-14v0a14,14,0,1,1,14,14m0-37.31a23.17,23.17,0,0,0-14,4.71V91a1.4,1.4,0,0,0-1.4-1.4H62.69A1.4,1.4,0,0,0,61.3,91v53.16a1.39,1.39,0,0,0,1.39,1.39h6.53a1.39,1.39,0,0,0,1.4-1.39v-3.31a23.3,23.3,0,1,0,14-41.93"/><path class="cls-3" d="M129.65,189c-6,3.31-11.59,4.13-14.87,2.19a4.16,4.16,0,0,1-2.19-3.65,4.65,4.65,0,0,1,4.65-4.65h14v5.25Zm-7.74-34.09h0a23.16,23.16,0,0,0-15.43,5.84,1.39,1.39,0,0,0,0,2l4.62,4.62a1.4,1.4,0,0,0,1.87.12,13.86,13.86,0,0,1,9-3.26h0c6.15,0,9.33,2.49,9.33,3.56v5.76h-14a14,14,0,0,0-14,14A13.51,13.51,0,0,0,110,199.18a17.47,17.47,0,0,0,9,2.32,30,30,0,0,0,12.17-2.91v1.51a1.39,1.39,0,0,0,1.4,1.4h6.52a1.39,1.39,0,0,0,1.4-1.4V167.77c0-7.47-7.84-12.89-18.65-12.89"/><path class="cls-3" d="M84.6,164.2a13.89,13.89,0,0,1,9,3.26,1.4,1.4,0,0,0,1.87-.12l4.62-4.61a1.4,1.4,0,0,0,0-2,23.3,23.3,0,1,0,0,35,1.39,1.39,0,0,0,0-2L95.44,189a1.38,1.38,0,0,0-1.85-.11,14,14,0,1,1-9-24.71"/><path class="cls-3" d="M183.33,173.53a14,14,0,0,1,26.38,0ZM193.85,155a23.32,23.32,0,0,0,2.67,46.48h0A23.14,23.14,0,0,0,212,195.67a1.39,1.39,0,0,0,0-2l-4.62-4.61a1.4,1.4,0,0,0-1.87-.13,13.84,13.84,0,0,1-9,3.27h0a14,14,0,0,1-13.19-9.33h34.84a1.4,1.4,0,0,0,1.39-1.15,22.67,22.67,0,0,0,.28-3.51,23.34,23.34,0,0,0-26-23.17"/><path class="cls-3" d="M175.45,156.91a22.06,22.06,0,0,0-9.25-2c-10.8,0-18.64,5.42-18.64,12.89v32.35a1.39,1.39,0,0,0,1.39,1.39h6.53a1.39,1.39,0,0,0,1.4-1.39V167.77c0-1.07,3.18-3.56,9.32-3.56h0a12.7,12.7,0,0,1,4.8.93,1.37,1.37,0,0,0,1.72-.55l3.31-5.73a1.38,1.38,0,0,0-.58-2"/><path class="cls-3" d="M203.53,108.25a9.84,9.84,0,0,1,5.69,1.51,2.73,2.73,0,0,1,1.29,2v14.07a1.38,1.38,0,0,0,1.7,1.35,13.7,13.7,0,0,1,3-.32,13.86,13.86,0,0,1,3,.32,1.39,1.39,0,0,0,1.7-1.35v-6h0v-4.12h0v-4a11.9,11.9,0,0,0-5.11-9.58,18.82,18.82,0,0,0-11.18-3.31h0a18.86,18.86,0,0,0-11.19,3.31c-.16.12-.3.25-.45.38-.15-.13-.3-.26-.46-.38a18.8,18.8,0,0,0-11.18-3.31h0A18.81,18.81,0,0,0,169,102.23a11.91,11.91,0,0,0-5.12,9.58v4h0v28.37a1.4,1.4,0,0,0,1.4,1.4h6.53a1.4,1.4,0,0,0,1.4-1.4V119.9h0v-8.09a2.73,2.73,0,0,1,1.29-2,9.86,9.86,0,0,1,5.7-1.51h0a9.8,9.8,0,0,1,5.69,1.51,2.73,2.73,0,0,1,1.29,2v32.34a1.4,1.4,0,0,0,1.4,1.4h6.53a1.4,1.4,0,0,0,1.4-1.4V119.9h0v-8.09a2.73,2.73,0,0,1,1.29-2,9.8,9.8,0,0,1,5.69-1.51Z"/></svg>