<svg width="47" height="24" viewBox="0 0 47 24" fill="none" xmlns="http://www.w3.org/2000/svg">
<path d="M23.687 14.6602C23.4133 16.1191 22.321 17.0954 21.1328 17.0954C19.6267 17.0954 19.2642 16.4324 19.5715 14.7566L20.8738 7.92795H18.2778L16.8392 15.4975C16.3367 17.8993 17.8455 19.5762 19.9914 19.5762C20.9728 19.5762 22.1515 19.0328 22.9513 18.2228L23.0862 18.0846L22.8194 19.5263H25.4158L27.6339 7.92795H24.9923L23.687 14.6602Z" fill="#7C7B7B"/>
<path d="M10.9096 17.3075C9.44152 17.3075 8.90202 16.7354 8.90202 15.3232C8.90202 15.2072 8.90202 15.0682 8.94803 14.8372C9.2679 14.8602 9.63692 14.8733 9.95728 14.8733C13.9763 14.8733 16.2593 13.4599 16.2593 10.9835C16.2593 9.22414 14.9812 7.81269 12.1484 7.81269C7.97075 7.81269 6.34961 11.7012 6.34961 15.3358C6.34961 18.3454 7.94799 19.5762 10.3219 19.5762C11.3837 19.5762 12.5489 19.3704 13.7197 18.8134C14.0688 18.6476 14.4192 18.4442 14.7667 18.2013L13.4846 16.5736C12.7075 16.9584 11.8927 17.3075 10.9096 17.3075ZM12.0307 10.114C13.1269 10.114 13.7376 10.6201 13.7376 11.3148C13.7376 11.8935 13.0279 12.9093 10.197 12.9093C9.92338 12.9093 9.58753 12.9161 9.26838 12.8909C9.61126 11.5029 10.5466 10.114 12.0307 10.114Z" fill="#7C7B7B"/>
<path d="M43.5227 7.92785C41.5904 13.5831 39.8937 16.9186 39.8937 16.9186C39.8037 11.5888 38.9201 7.92785 38.9201 7.92785C36.4415 7.60338 34.0603 8.03827 32.5554 9.51727L32.4377 9.61873L32.7268 7.93003L30.1182 7.9264L27.8799 19.5262H30.6154L31.9239 13.0499C32.3544 10.8219 34.3608 10.1049 36.6224 10.0931C37.1215 13.108 38.1607 18.5528 38.1607 19.0068C37.6873 20.3618 35.989 21.6805 34.4577 22.2769L35.8398 24C40.9555 22.8043 44.5981 11.8643 46.1822 7.92785H43.5227Z" fill="#7C7B7B"/>
<path d="M4.26646 17.544C2.55477 17.8004 2.43951 17.4331 2.56736 16.6091C2.56736 16.6091 5.28854 3.23802 5.4394 2.55349C5.45102 2.49949 5.44327 2.399 5.32196 2.21086C5.13963 1.92828 3.59476 0.143209 2.91435 0.0071258L2.85623 0.000831733L2.8509 0.000589725C3.11048 0.0579773 3.21388 0.339345 3.12452 0.93356L2.82621 2.50942V2.50966L2.81797 2.55349L0.147878 15.9335C-0.444158 18.6828 0.802145 19.9286 2.80345 19.9029C3.20516 19.8971 4.57084 19.7727 5.63844 19.346L4.26646 17.544Z" fill="#7C7B7B"/>
</svg>
