<svg id="Camada_1" data-name="Camada 1" xmlns="http://www.w3.org/2000/svg" viewBox="0 0 425.2 69.9"><defs><style>.cls-1{fill:#fb1481;}.cls-2{fill:#1f295c;}</style></defs><title>bem.care</title><path class="cls-1" d="M221.33,62.61a7.28,7.28,0,1,1-7.28-7.28,7.27,7.27,0,0,1,7.28,7.28"/><path class="cls-2" d="M198,32.7h0v-5a14.84,14.84,0,0,0-6.4-12,23.47,23.47,0,0,0-14-4.13h-.05a23.48,23.48,0,0,0-14,4.13c-.2.15-.38.31-.57.47-.19-.16-.37-.32-.57-.47a23.47,23.47,0,0,0-14-4.13h-.05a23.48,23.48,0,0,0-14,4.13,14.86,14.86,0,0,0-6.39,12v5h0V68.14a1.75,1.75,0,0,0,1.75,1.75H138a1.75,1.75,0,0,0,1.75-1.75V37.86h0V27.74a3.4,3.4,0,0,1,1.61-2.55,12.21,12.21,0,0,1,7.11-1.89h0a12.2,12.2,0,0,1,7.1,1.89,3.41,3.41,0,0,1,1.61,2.56V68.14A1.75,1.75,0,0,0,159,69.89h8.16a1.74,1.74,0,0,0,1.74-1.75V37.86h0V27.74a3.42,3.42,0,0,1,1.61-2.55,12.21,12.21,0,0,1,7.11-1.89h0a12.2,12.2,0,0,1,7.1,1.89,3.4,3.4,0,0,1,1.61,2.56V68.14a1.74,1.74,0,0,0,1.74,1.75h8.16A1.75,1.75,0,0,0,198,68.14V37.85h0V32.7Z"/><path class="cls-2" d="M76.72,34.94a17.48,17.48,0,0,1,33,0ZM89.86,11.83a29.13,29.13,0,0,0,3.33,58.06h0a28.92,28.92,0,0,0,19.28-7.3,1.73,1.73,0,0,0,0-2.51l-5.77-5.77a1.74,1.74,0,0,0-2.33-.15,17.33,17.33,0,0,1-11.22,4.07h0A17.49,17.49,0,0,1,76.72,46.6h43.51A1.74,1.74,0,0,0,122,45.15a27.54,27.54,0,0,0,.35-4.38A29.15,29.15,0,0,0,89.86,11.83"/><path class="cls-2" d="M29.12,58.24A17.49,17.49,0,0,1,11.65,40.8v0A17.48,17.48,0,1,1,29.12,58.24m0-46.59a28.89,28.89,0,0,0-17.47,5.88V1.75A1.75,1.75,0,0,0,9.9,0H1.75A1.75,1.75,0,0,0,0,1.75v66.4A1.75,1.75,0,0,0,1.75,69.9H9.9a1.75,1.75,0,0,0,1.75-1.75V64A29.11,29.11,0,1,0,29.12,11.65"/><path class="cls-2" d="M312.55,54.24C305,58.37,298.06,59.39,294,57a5.2,5.2,0,0,1-2.74-4.57A5.81,5.81,0,0,1,297,46.6h17.48v6.55Zm-9.67-42.59h0A28.92,28.92,0,0,0,283.6,19a1.73,1.73,0,0,0,0,2.51l5.77,5.76a1.74,1.74,0,0,0,2.33.16,17.34,17.34,0,0,1,11.22-4.08h0c7.68,0,11.64,3.11,11.64,4.44V35H297a17.48,17.48,0,0,0-17.46,17.46A16.89,16.89,0,0,0,288,67a21.86,21.86,0,0,0,11.29,2.89,37.25,37.25,0,0,0,15.2-3.64v1.9a1.75,1.75,0,0,0,1.75,1.74h8.16a1.74,1.74,0,0,0,1.74-1.74V27.74c0-9.32-9.79-16.09-23.29-16.09"/><path class="cls-2" d="M256.27,23.29a17.33,17.33,0,0,1,11.22,4.07,1.75,1.75,0,0,0,2.34-.15l5.76-5.76a1.74,1.74,0,0,0,0-2.52,29.11,29.11,0,1,0,0,43.67,1.74,1.74,0,0,0,0-2.52l-5.78-5.79a1.73,1.73,0,0,0-2.31-.14,17.47,17.47,0,1,1-11.23-30.86"/><path class="cls-2" d="M379.6,35a17.47,17.47,0,0,1,32.95,0Zm13.14-23.11a29.13,29.13,0,0,0,3.33,58.06h0a28.9,28.9,0,0,0,19.28-7.3,1.73,1.73,0,0,0,0-2.51l-5.77-5.76a1.74,1.74,0,0,0-2.33-.16,17.34,17.34,0,0,1-11.22,4.08h0A17.5,17.5,0,0,1,379.6,46.6h43.51a1.74,1.74,0,0,0,1.73-1.44,27.66,27.66,0,0,0,.36-4.39,29.15,29.15,0,0,0-32.46-28.93"/><path class="cls-2" d="M369.75,14.18a27.5,27.5,0,0,0-11.55-2.53c-13.49,0-23.29,6.77-23.29,16.1v40.4a1.75,1.75,0,0,0,1.75,1.75h8.15a1.75,1.75,0,0,0,1.75-1.75V27.75c0-1.33,4-4.45,11.64-4.45h0a16,16,0,0,1,6,1.16,1.69,1.69,0,0,0,2.14-.68l4.14-7.16a1.74,1.74,0,0,0-.73-2.44"/></svg>